<mxfile host="Electron" modified="2023-07-14T18:33:52.644Z" agent="Mozilla/5.0 (Windows NT 10.0; Win64; x64) AppleWebKit/537.36 (KHTML, like Gecko) draw.io/21.6.1 Chrome/112.0.5615.204 Electron/24.6.1 Safari/537.36" etag="yPZD2sO08Oxho80dEPLd" version="21.6.1" type="device">
  <diagram name="Page-1" id="QhmngXGAJVvDmnomV4EN">
    <mxGraphModel dx="1257" dy="760" grid="1" gridSize="10" guides="1" tooltips="1" connect="1" arrows="1" fold="1" page="1" pageScale="1" pageWidth="827" pageHeight="1169" math="0" shadow="0">
      <root>
        <mxCell id="0" />
        <mxCell id="1" parent="0" />
        <mxCell id="Ajd5hvYeWk1VopEKvmaR-36" value="" style="rounded=0;whiteSpace=wrap;html=1;fillColor=default;strokeColor=none;" vertex="1" parent="1">
          <mxGeometry x="120" y="90" width="600" height="210" as="geometry" />
        </mxCell>
        <mxCell id="Ajd5hvYeWk1VopEKvmaR-2" value="Browser" style="rounded=0;whiteSpace=wrap;html=1;" vertex="1" parent="1">
          <mxGeometry x="140" y="110" width="120" height="40" as="geometry" />
        </mxCell>
        <mxCell id="Ajd5hvYeWk1VopEKvmaR-3" value="Server" style="rounded=0;whiteSpace=wrap;html=1;" vertex="1" parent="1">
          <mxGeometry x="580" y="110" width="120" height="40" as="geometry" />
        </mxCell>
        <mxCell id="Ajd5hvYeWk1VopEKvmaR-4" value="" style="endArrow=none;html=1;rounded=0;entryX=0.5;entryY=1;entryDx=0;entryDy=0;" edge="1" parent="1" target="Ajd5hvYeWk1VopEKvmaR-2">
          <mxGeometry width="50" height="50" relative="1" as="geometry">
            <mxPoint x="200" y="280" as="sourcePoint" />
            <mxPoint x="465" y="190" as="targetPoint" />
          </mxGeometry>
        </mxCell>
        <mxCell id="Ajd5hvYeWk1VopEKvmaR-5" value="" style="endArrow=none;html=1;rounded=0;entryX=0.5;entryY=1;entryDx=0;entryDy=0;" edge="1" parent="1" source="Ajd5hvYeWk1VopEKvmaR-29" target="Ajd5hvYeWk1VopEKvmaR-3">
          <mxGeometry width="50" height="50" relative="1" as="geometry">
            <mxPoint x="645" y="590" as="sourcePoint" />
            <mxPoint x="644.5" y="150" as="targetPoint" />
          </mxGeometry>
        </mxCell>
        <mxCell id="Ajd5hvYeWk1VopEKvmaR-6" value="" style="endArrow=classic;html=1;rounded=0;" edge="1" parent="1">
          <mxGeometry width="50" height="50" relative="1" as="geometry">
            <mxPoint x="200" y="200" as="sourcePoint" />
            <mxPoint x="640" y="200" as="targetPoint" />
          </mxGeometry>
        </mxCell>
        <mxCell id="Ajd5hvYeWk1VopEKvmaR-7" value="POST&amp;nbsp;https://studies.cs.helsinki.fi/exampleapp/new_note_spa&lt;br&gt;&lt;div style=&quot;display: flex; line-height: 20px; padding-left: 8px; gap: 12px; user-select: text; color: rgb(255, 255, 255); font-family: &amp;quot;Segoe UI&amp;quot;, Tahoma, sans-serif; font-size: 12px; text-align: start;&quot; class=&quot;row&quot;&gt;&lt;/div&gt;" style="edgeLabel;html=1;align=center;verticalAlign=middle;resizable=0;points=[];" vertex="1" connectable="0" parent="Ajd5hvYeWk1VopEKvmaR-6">
          <mxGeometry x="0.0492" relative="1" as="geometry">
            <mxPoint x="-11" as="offset" />
          </mxGeometry>
        </mxCell>
        <mxCell id="Ajd5hvYeWk1VopEKvmaR-8" value="" style="endArrow=none;html=1;rounded=0;dashed=1;endFill=0;startArrow=classic;startFill=1;" edge="1" parent="1">
          <mxGeometry width="50" height="50" relative="1" as="geometry">
            <mxPoint x="200" y="240" as="sourcePoint" />
            <mxPoint x="640" y="240" as="targetPoint" />
          </mxGeometry>
        </mxCell>
        <mxCell id="Ajd5hvYeWk1VopEKvmaR-9" value="201 Created" style="edgeLabel;html=1;align=center;verticalAlign=middle;resizable=0;points=[];" vertex="1" connectable="0" parent="Ajd5hvYeWk1VopEKvmaR-8">
          <mxGeometry x="0.0492" relative="1" as="geometry">
            <mxPoint x="-11" as="offset" />
          </mxGeometry>
        </mxCell>
        <mxCell id="Ajd5hvYeWk1VopEKvmaR-28" value="" style="endArrow=none;html=1;rounded=0;entryX=0.5;entryY=1;entryDx=0;entryDy=0;" edge="1" parent="1" target="Ajd5hvYeWk1VopEKvmaR-29">
          <mxGeometry width="50" height="50" relative="1" as="geometry">
            <mxPoint x="640" y="280" as="sourcePoint" />
            <mxPoint x="639.5" y="160" as="targetPoint" />
          </mxGeometry>
        </mxCell>
        <mxCell id="Ajd5hvYeWk1VopEKvmaR-29" value="" style="rounded=0;whiteSpace=wrap;html=1;" vertex="1" parent="1">
          <mxGeometry x="635" y="210" width="10" height="20" as="geometry" />
        </mxCell>
      </root>
    </mxGraphModel>
  </diagram>
</mxfile>
